<svg width="40" height="40" viewBox="0 0 40 40" fill="none" xmlns="http://www.w3.org/2000/svg">
<path d="M35.524 13.636C35.292 13.816 31.196 16.124 31.196 21.256C31.196 27.192 36.408 29.292 36.564 29.344C36.54 29.472 35.736 32.22 33.816 35.02C32.104 37.484 30.316 39.944 27.596 39.944C24.876 39.944 24.176 38.364 21.036 38.364C17.976 38.364 16.888 39.996 14.4 39.996C11.912 39.996 10.176 37.716 8.18 34.916C5.868 31.628 4 26.52 4 21.672C4 13.896 9.056 9.772 14.032 9.772C16.676 9.772 18.88 11.508 20.54 11.508C22.12 11.508 24.584 9.668 27.592 9.668C28.732 9.668 32.828 9.772 35.524 13.636ZM26.164 6.376C27.408 4.9 28.288 2.852 28.288 0.804C28.288 0.52 28.264 0.232 28.212 0C26.188 0.076 23.78 1.348 22.328 3.032C21.188 4.328 20.124 6.376 20.124 8.452C20.124 8.764 20.176 9.076 20.2 9.176C20.328 9.2 20.536 9.228 20.744 9.228C22.56 9.228 24.844 8.012 26.164 6.376Z" fill="black"/>
</svg>
