<svg width="36" height="36" viewBox="0 0 36 36" fill="none" xmlns="http://www.w3.org/2000/svg">
<rect x="5" y="10" width="25" height="24" fill="#2563EB"/>
<path fill-rule="evenodd" clip-rule="evenodd" d="M21.4043 4.95173C19.5325 3.07993 15.2678 3.07993 13.396 4.95173C12.2127 6.13505 11.5479 7.73997 11.5479 9.41344V14.9158C11.5479 15.6194 10.9775 16.1897 10.2739 16.1897C9.57036 16.1897 9 15.6194 9 14.9158V9.41344C9 7.06424 9.93322 4.81125 11.5944 3.15011C14.4612 0.283297 20.3391 0.283297 23.206 3.15011C24.8671 4.81125 26 7.06424 26 9.41344V14.9158C26 15.6194 25.4296 16.1897 24.7261 16.1897C24.0225 16.1897 23.4521 15.6194 23.4521 14.9158V9.41344C23.4521 7.73997 22.5877 6.13505 21.4043 4.95173Z" fill="black"/>
<rect x="5" y="31" width="25" height="4.24646" fill="black"/>
</svg>
