<svg width="40" height="40" viewBox="0 0 40 40" fill="none" xmlns="http://www.w3.org/2000/svg">
<g clip-path="url(#clip0_209_3736)">
<mask id="mask0_209_3736" style="mask-type:luminance" maskUnits="userSpaceOnUse" x="-5" y="-5" width="51" height="51">
<path d="M-4.79999 -4.79985H45.6V45.6001H-4.79999V-4.79985Z" fill="white"/>
</mask>
<g mask="url(#mask0_209_3736)">
<path d="M38.4 20.4004C38.4 10.4593 30.3411 2.40041 20.4 2.40041C10.4589 2.40041 2.40002 10.4593 2.40002 20.4004C2.40002 28.842 8.2115 35.9252 16.0516 37.8703V25.9009H12.3399V20.4004H16.0516V18.0302C16.0516 11.9036 18.8242 9.06394 24.8391 9.06394C25.9794 9.06394 27.9471 9.2875 28.7521 9.51113V14.4974C28.3272 14.4527 27.5893 14.4303 26.6726 14.4303C23.7211 14.4303 22.5807 15.5483 22.5807 18.4551V20.4004H28.4601L27.4501 25.9009H22.5807V38.2686C31.4933 37.1921 38.4 29.6033 38.4 20.4004Z" fill="#0866FF"/>
<path d="M27.45 25.9004L28.4601 20.3999H22.5807V18.4546C22.5807 15.5478 23.721 14.4298 26.6725 14.4298C27.5893 14.4298 28.3271 14.4521 28.752 14.4969V9.51065C27.9471 9.28702 25.9794 9.06338 24.839 9.06338C18.8242 9.06338 16.0516 11.9031 16.0516 18.0298V20.3999H12.3398V25.9004H16.0516V37.8698C17.4443 38.2153 18.9005 38.3999 20.3999 38.3999C21.1382 38.3999 21.8657 38.3544 22.5807 38.2681V25.9004H27.45Z" fill="white"/>
</g>
</g>
<defs>
<clipPath id="clip0_209_3736">
<rect width="40" height="40" fill="white"/>
</clipPath>
</defs>
</svg>
